<svg id="Group_5584" data-name="Group 5584" xmlns="http://www.w3.org/2000/svg" width="13.278" height="16.248" viewBox="0 0 13.278 16.248">
  <path id="Path_2405" data-name="Path 2405" d="M403.539,570.905c-1.374,2.383-.5,6,1.019,8.194.758,1.1,1.526,2.081,2.577,2.081h.06a3.179,3.179,0,0,0,1.2-.319,3.276,3.276,0,0,1,1.417-.336,3.082,3.082,0,0,1,1.349.325,2.855,2.855,0,0,0,1.292.31c1.185-.022,1.912-1.084,2.553-2.021a8.956,8.956,0,0,0,1.118-2.291l0-.014a.134.134,0,0,0-.071-.164l-.01,0a3.4,3.4,0,0,1-2.057-3.109,3.494,3.494,0,0,1,1.651-2.921l.013-.008a.133.133,0,0,0,.038-.187,3.842,3.842,0,0,0-3.023-1.641,2.612,2.612,0,0,0-.264-.013,5.268,5.268,0,0,0-1.9.474,3.048,3.048,0,0,1-.909.271,2.976,2.976,0,0,1-.94-.275,4.555,4.555,0,0,0-1.657-.421h-.042A4.062,4.062,0,0,0,403.539,570.905Z" transform="translate(-402.854 -564.932)"/>
  <path id="Path_2406" data-name="Path 2406" d="M444.513,545.951a3.71,3.71,0,0,0-2.449,1.257,3.476,3.476,0,0,0-.88,2.577.134.134,0,0,0,.122.115c.057,0,.114.007.172.007a3.139,3.139,0,0,0,2.312-1.186,3.665,3.665,0,0,0,.861-2.651A.134.134,0,0,0,444.513,545.951Z" transform="translate(-434.699 -545.951)"/>
</svg>
