<svg xmlns="http://www.w3.org/2000/svg" width="16.537" height="12.476" viewBox="0 0 16.537 12.476">
    <g data-name="Group 5889">
        <path data-name="Path 2517" d="M7.118 9.736a.052.052 0 0 0 .013-.061 37.888 37.888 0 0 0-4.6-7.472 4.253 4.253 0 0 0-1.344 2.75 2.436 2.436 0 0 0 .837 1.658 25.546 25.546 0 0 0 5.025 3.136.058.058 0 0 0 .068-.012"/>
        <path data-name="Path 2518" d="M7.118 9.736a.052.052 0 0 0 .013-.061 37.888 37.888 0 0 0-4.6-7.472 4.253 4.253 0 0 0-1.344 2.75 2.436 2.436 0 0 0 .837 1.658 25.546 25.546 0 0 0 5.025 3.136.058.058 0 0 0 .068-.012"/>
        <path data-name="Path 2519" d="M6.647 10.783a.071.071 0 0 0-.067-.046l-5.082.177a2.425 2.425 0 0 0 2.447 1.514 12.9 12.9 0 0 0 2.678-1.58c.038-.035.025-.063.025-.063"/>
        <path data-name="Path 2520" d="M6.647 10.783a.071.071 0 0 0-.067-.046l-5.082.177a2.425 2.425 0 0 0 2.447 1.514 12.9 12.9 0 0 0 2.678-1.58c.038-.035.025-.063.025-.063"/>
        <path data-name="Path 2521" d="M6.722 10.326c.026-.04-.018-.075-.018-.075C4.472 8.743.144 6.429.144 6.429a3.013 3.013 0 0 0 1.74 3.72 3.084 3.084 0 0 0 .972.214c.077.013 3.024 0 3.814 0a.064.064 0 0 0 .051-.035"/>
        <path data-name="Path 2522" d="M7.061 0c-.222.02-.819.157-.819.157a2.356 2.356 0 0 0-1.664 1.57 3.1 3.1 0 0 0 .007 1.614c.449 1.995 2.66 5.273 3.135 5.962.033.034.06.022.06.022a.062.062 0 0 0 .048-.063c.731-7.321-.767-9.263-.767-9.263"/>
        <path data-name="Path 2523" d="M7.061 0c-.222.02-.819.157-.819.157a2.356 2.356 0 0 0-1.664 1.57 3.1 3.1 0 0 0 .007 1.614c.449 1.995 2.66 5.273 3.135 5.962.033.034.06.022.06.022a.062.062 0 0 0 .048-.063c.731-7.321-.767-9.263-.767-9.263"/>
        <path data-name="Path 2524" d="M8.744 9.323a.059.059 0 0 0 .074-.028c.486-.707 2.683-3.967 3.132-5.954a3.381 3.381 0 0 0 .007-1.614 2.359 2.359 0 0 0-1.68-1.57s-.388-.1-.8-.157c0 0-1.506 1.942-.774 9.267a.059.059 0 0 0 .039.056"/>
        <path data-name="Path 2525" d="M8.744 9.323a.059.059 0 0 0 .074-.028c.486-.707 2.683-3.967 3.132-5.954a3.381 3.381 0 0 0 .007-1.614 2.359 2.359 0 0 0-1.68-1.57s-.388-.1-.8-.157c0 0-1.506 1.942-.774 9.267a.059.059 0 0 0 .039.056"/>
        <path data-name="Path 2526" d="M9.948 10.74s-.046.006-.058.039a.073.073 0 0 0 .019.068 13.328 13.328 0 0 0 2.672 1.583s1.314.447 2.456-1.515l-5.09-.178"/>
        <path data-name="Path 2527" d="M9.948 10.74s-.046.006-.058.039a.073.073 0 0 0 .019.068 13.328 13.328 0 0 0 2.672 1.583s1.314.447 2.456-1.515l-5.09-.178"/>
        <path data-name="Path 2528" d="M16.389 6.417s-4.321 2.322-6.555 3.829a.068.068 0 0 0-.027.073s.022.039.053.039c.8 0 3.828 0 3.9-.009a3.038 3.038 0 0 0 .874-.2 2.981 2.981 0 0 0 1.637-1.566 3.076 3.076 0 0 0 .113-2.166"/>
        <path data-name="Path 2529" d="M16.389 6.417s-4.321 2.322-6.555 3.829a.068.068 0 0 0-.027.073s.022.039.053.039c.8 0 3.828 0 3.9-.009a3.038 3.038 0 0 0 .874-.2 2.981 2.981 0 0 0 1.637-1.566 3.076 3.076 0 0 0 .113-2.166"/>
        <path data-name="Path 2530" d="M9.427 9.736a.064.064 0 0 0 .068.006 25.425 25.425 0 0 0 5.014-3.13 2.45 2.45 0 0 0 .836-1.665 4.148 4.148 0 0 0-1.341-2.743 37.831 37.831 0 0 0-4.593 7.452.071.071 0 0 0 .015.081"/>
        <path data-name="Path 2531" d="M9.427 9.736a.064.064 0 0 0 .068.006 25.425 25.425 0 0 0 5.014-3.13 2.45 2.45 0 0 0 .836-1.665 4.148 4.148 0 0 0-1.341-2.743 37.831 37.831 0 0 0-4.593 7.452.071.071 0 0 0 .015.081"/>
    </g>
</svg>
