<svg xmlns="http://www.w3.org/2000/svg" width="25.868" height="25.868" viewBox="0 0 25.868 25.868">
    <g data-name="Group 5813" transform="translate(.5 .5)">
        <rect data-name="Rectangle 1030" width="24.868" height="24.868" rx="7.649" transform="rotate(90 12.434 12.434)" style="fill:none;stroke:#31b1e5"/>
        <path data-name="Path 2435" d="M215.16 119.464v-.238a.633.633 0 0 1 .36-.242 4.07 4.07 0 0 0 2.72-2.094c.531-.88.446-1.082-.532-1.428-.056-.02-.114-.037-.169-.059a2.131 2.131 0 0 1-.6-.332c-.438-.381-.179-.929.338-1.054.378-.091.707.151 1.073.2.245.031.343-.052.313-.313a12.545 12.545 0 0 1-.044-2.022 3.421 3.421 0 0 1 1.765-2.9 4.453 4.453 0 0 1 4.777-.014 3.407 3.407 0 0 1 1.757 2.622 11.7 11.7 0 0 1-.007 2.289c-.026.331.042.392.37.315.406-.1.747-.305 1.17-.119a.643.643 0 0 1 .418.56.622.622 0 0 1-.23.436 2.381 2.381 0 0 1-.687.361c-.184.075-.375.133-.554.216-.369.173-.475.4-.3.768a4.247 4.247 0 0 0 2.9 2.561.68.68 0 0 1 .418.253v.238a1.105 1.105 0 0 1-.651.534 2.983 2.983 0 0 1-.856.242.654.654 0 0 0-.693.636c-.06.409-.183.467-.6.433a2.883 2.883 0 0 1-.294-.043 2.651 2.651 0 0 0-2.252.48 4.9 4.9 0 0 1-.418.286 3.123 3.123 0 0 1-3.507.13c-.325-.19-.634-.408-.949-.615a2.112 2.112 0 0 0-.856-.314 5.513 5.513 0 0 0-1.45.089c-.247.027-.486-.043-.5-.3-.034-.617-.412-.768-.93-.824a2.671 2.671 0 0 1-.708-.22 1.042 1.042 0 0 1-.592-.518z" transform="translate(-210.331 -103.013)" style="fill:#31b1e5"/>
    </g>
</svg>
