<svg xmlns="http://www.w3.org/2000/svg" width="25.868" height="25.868" viewBox="0 0 25.868 25.868">
    <g data-name="Group 5814" transform="translate(.5 .5)">
        <rect data-name="Rectangle 1031" width="24.868" height="24.868" rx="7.649" transform="rotate(90 12.434 12.434)" style="fill:none;stroke:#31b1e5"/>
        <path data-name="Path 2436" d="M314.759 68.979a5.622 5.622 0 0 1-1.372.391c.22-.037.544-.436.674-.6a2.523 2.523 0 0 0 .455-.83c.012-.024.02-.054 0-.071a.079.079 0 0 0-.073.006 7 7 0 0 1-1.626.622.108.108 0 0 1-.112-.03 1.284 1.284 0 0 0-.142-.145 2.876 2.876 0 0 0-.787-.482 2.743 2.743 0 0 0-1.208-.195 2.883 2.883 0 0 0-1.146.324 2.95 2.95 0 0 0-.924.755 2.833 2.833 0 0 0-.552 1.106 2.982 2.982 0 0 0-.033 1.17c.009.065 0 .074-.056.065a8.689 8.689 0 0 1-5.588-2.844c-.065-.075-.1-.075-.154.005a2.834 2.834 0 0 0 .483 3.348c.11.1.222.207.344.3a2.847 2.847 0 0 1-1.078-.3c-.065-.042-.1-.018-.1.056a1.72 1.72 0 0 0 .018.32 2.865 2.865 0 0 0 1.765 2.284 1.652 1.652 0 0 0 .359.11 3.194 3.194 0 0 1-1.058.032c-.077-.014-.106.024-.077.1a2.976 2.976 0 0 0 2.222 1.861c.1.018.2.018.3.042-.006.008-.013.008-.018.018a3.52 3.52 0 0 1-1.518.8 5.429 5.429 0 0 1-2.3.3c-.124-.018-.151-.017-.184 0s0 .051.036.082c.156.1.316.2.48.285a7.625 7.625 0 0 0 1.54.617 8.206 8.206 0 0 0 7.966-1.862 8.362 8.362 0 0 0 2.2-6.1c0-.088.1-.136.165-.182a5.413 5.413 0 0 0 1.084-1.128.346.346 0 0 0 .071-.216v-.012c-.001-.038-.002-.027-.056-.002z" transform="translate(-295.455 -60.806)" style="fill:#31b1e5"/>
    </g>
</svg>
